<?xml version="1.0" ?><!DOCTYPE svg  PUBLIC '-//W3C//DTD SVG 1.1//EN'  'http://www.w3.org/Graphics/SVG/1.1/DTD/svg11.dtd'><svg enable-background="new 0 0 64 64" height="64px" id="Layer_1" version="1.1" viewBox="0 0 64 64" width="64px" xml:space="preserve" xmlns="http://www.w3.org/2000/svg" xmlns:xlink="http://www.w3.org/1999/xlink"><g><path d="M57.125,47.565c0.012-10.234,0.016-20.467,0-30.699c-0.008-5.477-3.999-9.457-9.491-9.465L45.873,7.4v3.368   l0.043,0.5l0.5-0.009c1.056-0.02,2.123-0.064,3.211,0.307c2.244,0.767,3.585,2.739,3.587,5.274l0.001,18.383l-0.001,9.191   c0,0.971-0.006,1.942-0.012,2.912c-0.014,2.188-0.029,4.451,0.032,6.678c0.039,1.465-0.499,2.846-1.515,3.89   c-1.061,1.09-2.512,1.689-4.123,1.689c-4.586-0.026-9.171-0.034-13.756-0.034l-17.492,0.013c-3.308,0-5.619-2.304-5.62-5.602   c-0.006-12.113-0.007-24.224,0.013-36.335c0.001-0.903,0.025-1.851,0.289-2.657c0.703-2.144,2.172-3.358,4.366-3.61   c0.611-0.071,1.4-0.071,2.223-0.044l0.506,0.015V7.398l-2.156,0.012c-0.678,0.005-1.325,0.078-1.922,0.217   c-4.295,0.998-7.18,4.64-7.18,9.062L6.866,39.697c-0.002,4.852-0.004,9.702,0.018,14.554c0.004,0.811,0.13,1.683,0.373,2.591   c0.85,3.178,3.987,6.598,8.865,6.598l0.168-0.001c2.401-0.041,4.804-0.033,7.205-0.021c1.047,0.004,2.094,0.008,3.14,0.008   l1.919-0.001l9.396,0.007c3.51,0,7.018-0.008,10.527-0.041c4.331-0.04,8.239-3.729,8.532-8.057c0.138-2.047,0.13-4.13,0.12-6.144   L57.125,47.565z" fill="#4C4E54"/><path d="M43.955,10.863c-0.01,0.954-0.413,1.366-1.366,1.366H21.572c-1.17,0-1.524-0.364-1.524-1.563   c-0.01-0.934-0.01-2.281,0-3.214c0.01-0.826,0.432-1.229,1.258-1.268c0.885-0.03,1.789,0.02,2.654-0.147   c1.504-0.305,2.684-1.17,3.46-2.526c0.265-0.462,0.511-0.934,0.786-1.396c0.6-1.013,1.494-1.524,2.664-1.543   c0.678-0.02,1.357,0.01,2.035-0.01c1.376-0.029,2.34,0.6,3.028,1.769c0.521,0.875,1.052,1.789,1.76,2.497   c1.101,1.091,2.526,1.425,4.07,1.376c2.064-0.059,2.192,0.108,2.192,2.143C43.955,9.054,43.964,10.165,43.955,10.863z" fill="#4C4E54"/><g><path d="M17.336,40.639c0,1.002,0,1.964,0,2.979c4.625,0,9.228,0,13.878,0c0-0.969,0-1.95,0-2.979    C26.609,40.639,22.005,40.639,17.336,40.639z" fill="#209FDA"/><path d="M46.664,43.619c0-1.009,0-1.972,0-2.982c-3.059,0-7.512,0-10.597,0c0,0.97,0,1.95,0,2.982    C39.112,43.619,43.565,43.619,46.664,43.619z" fill="#209FDA"/><path d="M46.664,49.336c0,1.002,0,1.964,0,2.979c-4.625,0-9.228,0-13.878,0c0-0.969,0-1.95,0-2.979    C37.391,49.336,41.995,49.336,46.664,49.336z" fill="#209FDA"/><path d="M17.336,52.317c0-1.009,0-1.972,0-2.982c3.059,0,7.512,0,10.597,0c0,0.97,0,1.95,0,2.982    C24.888,52.317,20.435,52.317,17.336,52.317z" fill="#209FDA"/></g><g><path d="M38.614,35.662l-0.643-0.95c-0.762-1.148-1.534-2.286-2.326-3.425c-0.257-0.386-0.257-0.693,0-1.069    c0.693-1,1.366-2.019,2.049-3.029l0.653-0.98c0.04-0.049,0.069-0.099,0.099-0.158h-1.544c-0.327,0-0.653,0-0.98-0.01    c-0.218,0-0.317,0.059-0.426,0.238c-0.317,0.525-0.653,1.049-0.99,1.564l-0.069,0.089c-0.129,0.208-0.297,0.426-0.544,0.426    c-0.238,0-0.406-0.208-0.544-0.396c-0.247-0.366-0.505-0.732-0.762-1.099c-0.336-0.485-0.673-0.97-1.019-1.455    c-0.277-0.386-0.228-0.693,0.178-0.98c0.673-0.505,1.138-1.287,1.267-2.168c0.139-0.881-0.079-1.772-0.584-2.435    c-0.614-0.812-1.504-1.207-2.821-1.247c-0.535-0.01-1.059-0.02-1.594-0.02l-2.039,0.01h-0.633c-0.148,0-0.178,0.02-0.178,0.02    s-0.03,0.03-0.03,0.158c0.01,3.326,0.01,6.641,0.01,9.967c0,0.119,0.02,0.148,0.02,0.148s0.03,0.02,0.129,0.02    c0.732-0.01,1.425-0.02,2.118,0c0.01,0,0.01,0,0.01,0c0.148,0,0.178-0.02,0.178-0.02s0.03-0.04,0.03-0.188    c-0.02-0.762-0.01-1.534-0.01-2.306v-0.683c0-0.109,0.01-0.218,0.02-0.327l0.02-0.287l0.416-0.188l0.228,0.238    c0.089,0.099,0.188,0.198,0.267,0.307l1.227,1.742c0.732,1.039,1.465,2.088,2.207,3.118c0.257,0.356,0.257,0.663,0.01,1.029    c-0.802,1.188-1.603,2.385-2.405,3.583l-0.515,0.772c-0.03,0.049-0.059,0.089-0.089,0.148l0.247-0.01    c0.841,0.01,1.683,0.02,2.524,0c0.03-0.01,0.139-0.089,0.208-0.178c0.287-0.406,0.564-0.822,0.841-1.237l0.406-0.604    c0.178-0.267,0.327-0.465,0.564-0.465s0.386,0.198,0.584,0.485l0.208,0.317c0.337,0.485,0.663,0.97,0.97,1.465    c0.109,0.178,0.208,0.228,0.416,0.228v0.247l0.03-0.247h2.623c0.03,0,0.059-0.01,0.089-0.01    C38.673,35.761,38.644,35.712,38.614,35.662z M29.914,22.904c-0.247,0.069-0.505,0.099-0.762,0.119    c-0.099,0.01-0.208,0.02-0.307,0.04c-1.128-0.049-1.237-0.158-1.227-1.227v-0.337c-0.01-0.336-0.01-0.525,0.139-0.673    c0.119-0.129,0.307-0.139,0.495-0.139l0.584,0.01c0.366,0,0.693,0.02,1,0.069c0.327,0.049,0.723,0.267,0.732,1    C30.567,22.043,30.577,22.706,29.914,22.904z" fill="#209FDA"/></g></g></svg>